<?xml version="1.0" encoding="UTF-8" standalone="no"?>
<svg
   enable-background="new 0 0 24 24"
   height="24px"
   viewBox="0 0 24 24"
   width="24px"
   fill="#FFFFFF"
   version="1.1"
   id="svg6"
   sodipodi:docname="copy-copy.svg"
   inkscape:version="1.2 (dc2aedaf03, 2022-05-15)"
   xmlns:inkscape="http://www.inkscape.org/namespaces/inkscape"
   xmlns:sodipodi="http://sodipodi.sourceforge.net/DTD/sodipodi-0.dtd"
   xmlns="http://www.w3.org/2000/svg"
   xmlns:svg="http://www.w3.org/2000/svg">
  <defs
     id="defs10" />
  <sodipodi:namedview
     id="namedview8"
     pagecolor="#ffffff"
     bordercolor="#666666"
     borderopacity="1.0"
     inkscape:showpageshadow="2"
     inkscape:pageopacity="0.0"
     inkscape:pagecheckerboard="0"
     inkscape:deskcolor="#d1d1d1"
     showgrid="false"
     inkscape:zoom="34.583333"
     inkscape:cx="9.5566265"
     inkscape:cy="12.014458"
     inkscape:window-width="1920"
     inkscape:window-height="991"
     inkscape:window-x="-9"
     inkscape:window-y="1071"
     inkscape:window-maximized="1"
     inkscape:current-layer="svg6" />
  <rect
     fill="none"
     height="24"
     width="24"
     id="rect2" />
  <path
     d="m 3,15 v -2 h 2 v 2 z M 3,9.5 h 2 v 2 H 3 Z M 10,20 h 2 v 2 H 10 Z M 3,18.5 v -2 h 2 v 2 z M 5,22 C 3.9,22 3,21.1 3,20 h 2 z m 3.5,0 h -2 v -2 h 2 z m 5,0 v 0 -2 h 2 v 0 c 0,1.1 -0.9,2 -2,2 z M 5,6 V 6 8 H 3 V 8 C 3,6.9 3.9,6 5,6 Z"
     id="path4"
     style="fill:#ffffff"
     sodipodi:nodetypes="cccccccccccccccccccccccccccccscccssscccss" />
</svg>
