<?xml version="1.0" encoding="UTF-8" standalone="no"?>
<svg
   height="24px"
   viewBox="0 0 24 24"
   width="24px"
   fill="#000000"
   version="1.1"
   id="svg6"
   sodipodi:docname="cut-top.svg"
   inkscape:version="1.2 (dc2aedaf03, 2022-05-15)"
   xmlns:inkscape="http://www.inkscape.org/namespaces/inkscape"
   xmlns:sodipodi="http://sodipodi.sourceforge.net/DTD/sodipodi-0.dtd"
   xmlns="http://www.w3.org/2000/svg"
   xmlns:svg="http://www.w3.org/2000/svg">
  <defs
     id="defs10" />
  <sodipodi:namedview
     id="namedview8"
     pagecolor="#ffffff"
     bordercolor="#666666"
     borderopacity="1.0"
     inkscape:showpageshadow="2"
     inkscape:pageopacity="0.0"
     inkscape:pagecheckerboard="0"
     inkscape:deskcolor="#d1d1d1"
     showgrid="false"
     inkscape:zoom="34.583333"
     inkscape:cx="14.674699"
     inkscape:cy="10.510843"
     inkscape:window-width="1920"
     inkscape:window-height="991"
     inkscape:window-x="-9"
     inkscape:window-y="1071"
     inkscape:window-maximized="1"
     inkscape:current-layer="svg6" />
  <path
     d="M0 0h24v24H0V0z"
     fill="none"
     id="path2" />
  <path
     d="M 10,12 7.64,14.36 C 7.14,14.13 6.59,14 6,14 c -2.21,0 -4,1.79 -4,4 0,2.21 1.79,4 4,4 2.21,0 4,-1.79 4,-4 0,-0.59 -0.13,-1.14 -0.36,-1.64 L 12,14 c -0.0056,0.01093 -2,-2 -2,-2 z m -4,8 c -1.1,0 -2,-0.89 -2,-2 0,-1.11 0.9,-2 2,-2 1.1,0 2,0.89 2,2 0,1.11 -0.9,2 -2,2 z M 19,3 13,9 15,11 22,4 V 3 Z"
     id="path4"
     sodipodi:nodetypes="ccsssscccssssscccccc"
     style="fill:#ffffff" />
</svg>
