<?xml version="1.0" encoding="UTF-8" standalone="no"?>
<svg
   height="24px"
   viewBox="0 0 24 24"
   width="24px"
   fill="#000000"
   version="1.1"
   id="svg6"
   sodipodi:docname="cut.svg"
   inkscape:version="1.2 (dc2aedaf03, 2022-05-15)"
   xmlns:inkscape="http://www.inkscape.org/namespaces/inkscape"
   xmlns:sodipodi="http://sodipodi.sourceforge.net/DTD/sodipodi-0.dtd"
   xmlns="http://www.w3.org/2000/svg"
   xmlns:svg="http://www.w3.org/2000/svg">
  <defs
     id="defs10" />
  <sodipodi:namedview
     id="namedview8"
     pagecolor="#ffffff"
     bordercolor="#666666"
     borderopacity="1.0"
     inkscape:showpageshadow="2"
     inkscape:pageopacity="0.0"
     inkscape:pagecheckerboard="0"
     inkscape:deskcolor="#d1d1d1"
     showgrid="false"
     inkscape:zoom="34.583333"
     inkscape:cx="9.5566265"
     inkscape:cy="12.014458"
     inkscape:window-width="1920"
     inkscape:window-height="991"
     inkscape:window-x="-9"
     inkscape:window-y="1071"
     inkscape:window-maximized="1"
     inkscape:current-layer="svg6" />
  <path
     d="M0 0h24v24H0V0z"
     fill="none"
     id="path2" />
  <path
     d="M 9.64,7.64 C 9.87,7.14 10,6.59 10,6 10,3.79 8.21,2 6,2 3.79,2 2,3.79 2,6 2,8.21 3.79,10 6,10 6.59,10 7.14,9.87 7.64,9.64 13.241739,15.193655 7.9296624,9.9296624 19,21 h 3 V 20 Z M 6,8 C 4.9,8 4,7.11 4,6 4,4.89 4.9,4 6,4 7.1,4 8,4.89 8,6 8,7.11 7.1,8 6,8 Z m 6,4.5 c -0.28,0 -0.5,-0.22 -0.5,-0.5 0,-0.28 0.22,-0.5 0.5,-0.5 0.28,0 0.5,0.22 0.5,0.5 0,0.28 -0.22,0.5 -0.5,0.5 z"
     id="path4"
     style="fill:#ffffff"
     sodipodi:nodetypes="csssscccccssssssssss" />
</svg>
