<?xml version="1.0" encoding="UTF-8" standalone="no"?>
<svg
   height="24px"
   viewBox="0 0 24 24"
   width="24px"
   fill="#FFFFFF"
   version="1.1"
   id="svg6"
   sodipodi:docname="paste-top.svg"
   inkscape:version="1.2 (dc2aedaf03, 2022-05-15)"
   xmlns:inkscape="http://www.inkscape.org/namespaces/inkscape"
   xmlns:sodipodi="http://sodipodi.sourceforge.net/DTD/sodipodi-0.dtd"
   xmlns="http://www.w3.org/2000/svg"
   xmlns:svg="http://www.w3.org/2000/svg">
  <defs
     id="defs10" />
  <sodipodi:namedview
     id="namedview8"
     pagecolor="#ffffff"
     bordercolor="#666666"
     borderopacity="1.0"
     inkscape:showpageshadow="2"
     inkscape:pageopacity="0.0"
     inkscape:pagecheckerboard="0"
     inkscape:deskcolor="#d1d1d1"
     showgrid="false"
     inkscape:zoom="24.454109"
     inkscape:cx="8.2808168"
     inkscape:cy="9.3849258"
     inkscape:window-width="1920"
     inkscape:window-height="991"
     inkscape:window-x="-9"
     inkscape:window-y="1071"
     inkscape:window-maximized="1"
     inkscape:current-layer="svg6" />
  <path
     d="M0 0h24v24H0V0z"
     fill="none"
     id="path2" />
  <path
     d="M 16.92967,2 H 14.82 C 14.4,0.84 13.3,0 12,0 10.7,0 9.6,0.84 9.18,2 H 7.0335827 C 7.0288247,2.4792653 6.902281,5.2024835 7.2170612,5.5490989 8.7954844,7.2871556 14.546234,7.1201906 16.634154,5.2261734 17.169191,4.7408248 16.909694,2.6079693 16.92967,2 Z M 12,2 c 0.55,0 1,0.45 1,1 0,0.55 -0.45,1 -1,1 C 11.45,4 11,3.55 11,3 11,2.45 11.45,2 12,2 Z M 7,4 V 7 H 17 V 4 Z"
     id="path4"
     style="fill:#ffffff"
     sodipodi:nodetypes="ccsccsscsssssccccc" />
</svg>
