<?xml version="1.0" encoding="UTF-8" standalone="no"?>
<!-- Created with Inkscape (http://www.inkscape.org/) -->

<svg
   width="92.570564mm"
   height="129.59158mm"
   viewBox="0 0 92.570564 129.59158"
   version="1.1"
   id="svg5"
   inkscape:version="1.2 (dc2aedaf03, 2022-05-15)"
   sodipodi:docname="logo.svg"
   xmlns:inkscape="http://www.inkscape.org/namespaces/inkscape"
   xmlns:sodipodi="http://sodipodi.sourceforge.net/DTD/sodipodi-0.dtd"
   xmlns="http://www.w3.org/2000/svg"
   xmlns:svg="http://www.w3.org/2000/svg">
  <sodipodi:namedview
     id="namedview7"
     pagecolor="#ffffff"
     bordercolor="#666666"
     borderopacity="1.0"
     inkscape:showpageshadow="2"
     inkscape:pageopacity="0.0"
     inkscape:pagecheckerboard="0"
     inkscape:deskcolor="#d1d1d1"
     inkscape:document-units="mm"
     showgrid="false"
     inkscape:zoom="0.3581229"
     inkscape:cx="-420.24679"
     inkscape:cy="314.13797"
     inkscape:window-width="1920"
     inkscape:window-height="991"
     inkscape:window-x="-9"
     inkscape:window-y="-9"
     inkscape:window-maximized="1"
     inkscape:current-layer="layer1" />
  <defs
     id="defs2" />
  <g
     inkscape:label="Layer 1"
     inkscape:groupmode="layer"
     id="layer1"
     transform="translate(-47.652906,-89.949552)">
    <g
       id="g3538"
       inkscape:export-filename="..\prontomock\public\logo512.png"
       inkscape:export-xdpi="141.38501"
       inkscape:export-ydpi="141.38501">
      <path
         id="rect1268"
         style="opacity:0.797531;fill:#004e68;fill-opacity:1;stroke-width:0.910977;stroke-linecap:round;stroke-miterlimit:18.1;stroke-dashoffset:5.07364;paint-order:markers fill stroke"
         d="M 93.612891,135.87284 47.652905,89.978487 v 91.813003 z" />
      <path
         id="path1594"
         style="opacity:0.797531;fill:#007298;fill-opacity:1;stroke-width:0.910977;stroke-linecap:round;stroke-miterlimit:18.1;stroke-dashoffset:5.07364;paint-order:markers fill stroke"
         d="m 93.612891,135.87284 -45.959986,45.91865 v 0.13952 h 91.981465 v -0.10232 z" />
      <path
         id="path1563"
         style="opacity:0.797531;fill:#99250b;fill-opacity:1;stroke-width:0.910977;stroke-linecap:round;stroke-miterlimit:18.1;stroke-dashoffset:5.07364;paint-order:markers fill stroke"
         d="M 139.4995,89.949548 H 47.652905 v 0.02894 l 45.920712,45.855082 z" />
      <path
         id="path1591"
         style="opacity:0.797531;fill:#f57b66;fill-opacity:1;stroke-width:0.910977;stroke-linecap:round;stroke-miterlimit:18.1;stroke-dashoffset:5.07364;paint-order:markers fill stroke"
         d="M 139.4995,89.949548 93.573617,135.83357 139.63437,181.82869 V 89.949548 Z" />
      <path
         id="rect1270-6"
         style="fill:#003c4a;fill-opacity:0.808;stroke-width:0.779041;stroke-linecap:round;stroke-miterlimit:18.1;stroke-dashoffset:5.07364;paint-order:markers fill stroke"
         d="m 54.475178,96.78537 78.775212,-0.60028 0.0693,79.32932 -79.383212,-0.004 z"
         sodipodi:nodetypes="ccccc" />
      <g
         aria-label="P"
         id="text1348"
         style="font-size:67.7031px;line-height:1.25;font-family:'Josefin Sans';-inkscape-font-specification:'Josefin Sans';fill:#ffffff;stroke-width:1.15443">
        <path
           d="m 74.515546,109.74266 q 5.619358,0 9.613841,1.89569 3.994483,1.89568 6.093279,5.41624 2.166499,3.52057 2.166499,8.5306 0,2.91123 -0.947843,5.82246 -0.88014,2.91124 -2.84353,5.28084 -1.895687,2.36961 -5.145436,3.79138 -3.182046,1.42176 -7.85356,1.42176 H 68.48997 v 17.12889 h -7.921263 v -49.28786 z m 1.08325,24.57623 q 2.572718,0 4.332998,-0.88015 1.760281,-0.88014 2.708125,-2.2342 1.015546,-1.35406 1.421765,-2.84353 0.473921,-1.48947 0.473921,-2.64042 0,-1.15095 -0.406218,-2.57272 -0.406219,-1.48946 -1.354062,-2.77582 -0.947844,-1.35407 -2.640421,-2.1665 -1.692578,-0.88014 -4.332999,-0.88014 H 68.48997 v 16.99348 z"
           style="font-weight:600;-inkscape-font-specification:'Josefin Sans Semi-Bold'"
           id="path353" />
      </g>
      <g
         aria-label="M"
         id="text1402"
         style="font-weight:bold;font-size:43.7246px;line-height:1.25;font-family:'Josefin Sans';-inkscape-font-specification:'Josefin Sans Bold';fill:#ffffff;stroke-width:0.745566">
        <path
           d="M 95.210401,158.97475 V 125.4817 h 0.04372 l 17.883359,25.36027 -2.71093,-0.61214 17.83964,-24.74813 h 0.0874 v 33.49305 h -6.34007 v -19.1951 l 0.39352,3.27934 -10.88742,15.47851 h -0.0874 l -11.1935,-15.47851 1.09312,-3.017 v 18.93276 z"
           id="path347" />
      </g>
    </g>
    <g
       aria-label="PREMIUM"
       id="text190-6"
       style="font-weight:bold;font-size:21.2964px;font-family:'Josefin Sans';-inkscape-font-specification:'Josefin Sans, Bold';stroke-width:0.532412"
       transform="translate(229.02985,-5.1716418)">
      <g
         id="g3424">
        <path
           id="path1721"
           d="m -108.06074,224.65096 v -5.919 h 0.008 l 3.1604,4.48175 -0.47908,-0.10818 3.15268,-4.37357 h 0.0155 v 5.919 h -1.12044 v -3.39222 l 0.0695,0.57953 -1.92407,2.73542 h -0.0155 l -1.97814,-2.73542 0.19318,-0.53317 v 3.34586 z m -4.83721,-2.10178 q 0,0.27044 0.16228,0.51772 0.16226,0.24726 0.42499,0.4018 0.27045,0.15455 0.58726,0.15455 0.34772,0 0.61817,-0.15455 0.27046,-0.15454 0.42499,-0.4018 0.16228,-0.24728 0.16228,-0.51772 v -3.58541 h 1.10498 v 3.60858 q 0,0.6259 -0.30909,1.11272 -0.30908,0.47908 -0.83453,0.75726 -0.52544,0.27045 -1.1668,0.27045 v 0 q -0.63362,0 -1.15907,-0.27045 -0.51772,-0.27818 -0.82681,-0.75726 -0.30909,-0.48682 -0.30909,-1.11272 v -3.60858 h 1.12044 z m -3.59312,-3.58541 h 1.12044 v 5.68719 h -1.12044 z m -7.32535,5.68719 v -5.919 h 0.008 l 3.16041,4.48175 -0.47908,-0.10818 3.15267,-4.37357 h 0.0155 v 5.919 h -1.12043 v -3.39222 l 0.0695,0.57953 -1.92407,2.73542 h -0.0155 l -1.97815,-2.73542 0.19318,-0.53317 v 3.34586 z m -5.14629,-5.68719 h 3.87903 v 1.0818 h -2.75859 v 1.21317 h 2.44178 v 1.0818 h -2.44178 v 1.22862 h 2.86678 v 1.0818 h -3.98722 z m -3.57768,0 q 0.53317,0 0.95044,0.13909 0.41727,0.13136 0.69545,0.38636 0.2859,0.24727 0.43272,0.60271 0.14682,0.34773 0.14682,0.78818 0,0.34771 -0.10819,0.69544 -0.10042,0.34773 -0.33999,0.63363 -0.23182,0.2859 -0.61818,0.46363 -0.38635,0.16999 -0.95816,0.16999 h -0.80363 v 1.80816 h -1.12044 v -5.68719 z m 0.19318,2.79723 q 0.255,0 0.42499,-0.085 0.17,-0.085 0.26273,-0.21637 0.10042,-0.13136 0.13909,-0.27045 0.0464,-0.14681 0.0464,-0.27044 0,-0.0927 -0.0309,-0.23182 -0.0231,-0.14681 -0.10818,-0.29363 -0.085,-0.14682 -0.26272,-0.24727 -0.17,-0.10042 -0.46363,-0.10042 h -0.80363 v 1.71543 z m 1.05089,0.69544 1.40635,2.19452 h -1.30589 l -1.43726,-2.1636 z m -6.15854,-3.49267 q 0.70317,0 1.18998,0.23954 0.48682,0.23182 0.74181,0.66454 0.255,0.42499 0.255,1.01226 0,0.34771 -0.10819,0.70317 -0.10042,0.34772 -0.33226,0.63362 -0.22409,0.2859 -0.61045,0.46364 -0.37863,0.16999 -0.93498,0.16999 h -0.80362 v 1.80043 h -1.12045 v -5.68719 z m 0.19318,2.79723 q 0.25499,0 0.42499,-0.085 0.17,-0.0928 0.26272,-0.22409 0.10042,-0.1391 0.13909,-0.28591 0.0464,-0.14681 0.0464,-0.25499 0,-0.085 -0.0309,-0.22409 -0.0231,-0.14681 -0.10817,-0.29363 -0.085,-0.14682 -0.26273,-0.24727 -0.17,-0.10042 -0.46363,-0.10042 h -0.80362 v 1.71543 z m 46.063526,-27.55089 c -1.013736,1.38759 -2.172759,2.82292 -3.552976,4.26418 h 2.42065 c 1.184603,-1.33419 2.201153,-2.64788 3.097725,-3.90586 v -0.35832 z m -8.907856,8.90205 c -1.32146,0.94892 -2.78837,1.87852 -4.41642,2.77727 v 2.03534 c 2.78952,-1.48104 5.143242,-3.05816 7.156586,-4.66861 h -2.740166 z m 4.715308,-8.90205 c -1.180069,1.49089 -2.469263,2.91375 -3.927423,4.26418 h 5.012873 c 1.250179,-1.37442 2.378879,-2.79946 3.424727,-4.26418 z m -4.715308,4.97238 c -1.32217,1.1522 -2.77964,2.24983 -4.41642,3.28784 v 4.1498 c 1.8526,-1.05911 3.52221,-2.18387 5.04456,-3.36397 h -0.62814 z m -4.41643,-4.97231 V 216.627 h 15.716049 v -4.26399 h -11.299629 v -4.8428 h 9.624486 v -4.26399 h -9.624486 v -4.78186 h 10.873251 v -4.26418 z m -5.01886,14.1046 c -2.0904,0.88369 -4.388,1.71909 -6.93739,2.48665 -0.15963,0.0481 -0.32575,0.0945 -0.48863,0.14175 l 1.5752,1.42295 c 2.10568,-0.65146 4.05046,-1.35285 5.85082,-2.09307 z m -15.74193,4.41792 c -1.43624,0.21519 -2.92612,0.39185 -4.4513,0.52764 v 1.84333 c 1.52773,-0.13482 3.0198,-0.31181 4.46349,-0.52576 z m 15.74193,-7.53965 c -1.35035,0.62605 -2.80406,1.22261 -4.36336,1.79159 l 0.005,0.73313 -0.57281,-0.52669 c -1.53485,0.5437 -3.17938,1.05896 -4.93582,1.54726 l 3.15904,2.8536 c 2.43657,-0.75507 4.66335,-1.58084 6.70808,-2.46978 z m -15.75993,4.85069 c -1.36454,0.22894 -2.85036,0.433 -4.4333,0.58726 v 3.68104 c 1.57983,-0.15076 3.07333,-0.34919 4.45786,-0.57526 z m -4.43332,-16.71669 V 216.627 h 4.47718 l -0.0883,-13.25115 15.68248,14.16485 0.11004,0.11846 0.0119,-23.44898 h -4.4468 l 0.0883,13.50765 -15.83642,-14.39078 z m 14.853,15.41129 -0.1054,-0.17643 0.002,0.28537 z m -40.13709,1.96916 c 0.45557,0.88294 1.00951,1.69439 1.66635,2.43096 4.62787,1.34091 9.46109,2.01377 14.19634,2.20165 0.85895,-0.49447 1.64591,-1.08804 2.35747,-1.78521 -6.08183,-0.04 -12.40413,-0.85686 -18.22016,-2.8474 z m -1.21595,-4.12862 c 0.10789,1.16397 0.38443,2.26975 0.83102,3.31692 0.17567,0.41191 0.3737,0.80762 0.58913,1.19063 5.63353,2.32213 11.45173,3.28336 16.83432,3.48079 0.41544,-0.31115 0.81137,-0.64908 1.18595,-1.01644 0.80223,-0.78709 1.46865,-1.66469 2.00008,-2.63234 -1.72328,0.028 -3.5077,-0.016 -5.32825,-0.15807 -0.56026,0.54296 -1.20727,0.97575 -1.94102,1.29789 -0.8122,0.36549 -1.69545,0.54826 -2.64978,0.54826 -0.99494,0 -1.91885,-0.18277 -2.77165,-0.54826 -0.83251,-0.36549 -1.57364,-0.87314 -2.2234,-1.5229 -0.53709,-0.57173 -0.9772,-1.21054 -1.32208,-1.91533 -1.55826,-0.51977 -3.1011,-1.14099 -4.61086,-1.88064 a 1.8141939,1.8141939 0 0 0 -0.59346,-0.16051 z m 11.36918,-12.61227 c -1.58379,0 -3.06606,0.30456 -4.44679,0.9137 -1.38074,0.60916 -2.59894,1.45174 -3.65479,2.52791 -1.03556,1.05586 -1.84776,2.27424 -2.4366,3.65498 -0.58885,1.38074 -0.88332,2.84268 -0.88332,4.38586 0,1.58379 0.29447,3.06606 0.88332,4.4468 0.58884,1.38073 1.40104,2.59912 2.4366,3.65498 1.05585,1.03556 2.27405,1.84774 3.65479,2.43659 1.38073,0.58884 2.863,0.88314 4.44679,0.88314 1.56348,0 3.03569,-0.2943 4.41642,-0.88314 1.38075,-0.58885 2.59894,-1.40103 3.6548,-2.43659 1.07616,-1.05586 1.90868,-2.27425 2.49753,-3.65498 0.60914,-1.38074 0.9137,-2.86301 0.9137,-4.4468 0,-1.54318 -0.30456,-3.00512 -0.9137,-4.38586 -0.58885,-1.38074 -1.42137,-2.59912 -2.49753,-3.65498 -1.05586,-1.07617 -2.27405,-1.91875 -3.65478,-2.52791 -1.38075,-0.60914 -2.85296,-0.9137 -4.41644,-0.9137 z m 0.0306,4.264 c 0.97464,0 1.87821,0.18276 2.71071,0.54825 0.83251,0.36549 1.55332,0.88339 2.16247,1.55345 0.62946,0.64977 1.11677,1.41104 1.46195,2.28416 0.36549,0.87311 0.54826,1.81734 0.54826,2.83259 0,0.99494 -0.1727,1.92892 -0.51788,2.80204 -0.34519,0.8528 -0.82225,1.61427 -1.4314,2.28433 -0.60914,0.64976 -1.33014,1.1574 -2.16265,1.5229 -0.81219,0.36548 -1.69545,0.54825 -2.64978,0.54825 -0.99494,0 -1.91885,-0.18277 -2.77165,-0.54825 -0.83251,-0.3655 -1.57364,-0.87314 -2.2234,-1.5229 -0.62946,-0.67006 -1.12685,-1.43153 -1.49233,-2.28433 -0.34519,-0.87312 -0.5177,-1.8071 -0.5177,-2.80204 0,-1.01525 0.17251,-1.95948 0.5177,-2.83259 0.34518,-0.87312 0.8325,-1.63439 1.46195,-2.28416 0.62945,-0.67006 1.36052,-1.18796 2.19303,-1.55345 0.8325,-0.36549 1.73607,-0.54825 2.71072,-0.54825 z"
           style="stroke-width:0.19318" />
        <g
           aria-label="BY"
           id="text1727"
           style="font-size:20.1328px;font-family:'Nunito Sans';-inkscape-font-specification:'Nunito Sans, Normal';stroke-width:0.111655">
          <path
             d="m -177.00268,193.95246 q 2.07368,0 3.20111,0.86571 1.14757,0.84558 1.14757,2.7582 0,0.94624 -0.36239,1.73142 -0.36239,0.78518 -1.08717,1.2885 -0.70465,0.50332 -1.77169,0.64425 l -0.10066,-0.48319 q 1.1073,0.0805 2.01328,0.56372 0.92611,0.46305 1.4697,1.26836 0.56371,0.78518 0.56371,1.85222 0,0.96638 -0.38252,1.69116 -0.36239,0.70464 -1.00664,1.18783 -0.62412,0.46306 -1.42943,0.70465 -0.80531,0.22146 -1.69115,0.22146 h -3.72457 v -14.29429 z m 0.46305,6.68409 q 1.5301,0 2.19448,-0.82544 0.68451,-0.82545 0.68451,-2.05355 0,-1.53009 -0.90597,-2.19447 -0.88585,-0.66439 -2.39581,-0.66439 h -2.2146 v 5.73785 z m 0.0604,6.70422 q 0.96638,0 1.77169,-0.30199 0.80531,-0.32212 1.2885,-0.96637 0.48318,-0.64425 0.48318,-1.59049 0,-1.04691 -0.54358,-1.67103 -0.54359,-0.64425 -1.36903,-0.9261 -0.82545,-0.302 -1.69116,-0.302 h -2.63739 v 5.75798 z"
             style="-inkscape-font-specification:'Josefin Sans Light'"
             id="path404" />
          <path
             d="m -164.621,203.15315 -5.33519,-9.20069 h 1.20797 l 4.81173,8.37525 -0.34225,0.0201 4.7916,-8.39538 h 1.18784 l -5.33519,9.20069 v 5.0936 h -0.98651 z"
             style="-inkscape-font-specification:'Josefin Sans Light'"
             id="path406" />
        </g>
      </g>
    </g>
  </g>
</svg>
