<?xml version="1.0" encoding="UTF-8" standalone="no"?>
<svg
   enable-background="new 0 0 24 24"
   height="14.970002"
   viewBox="0 0 9.3771871 9.9800014"
   width="14.065781"
   fill="#ffffff"
   version="1.1"
   id="svg159"
   xmlns="http://www.w3.org/2000/svg"
   xmlns:svg="http://www.w3.org/2000/svg">
  <defs
     id="defs163" />
  <g
     id="g157"
     style="fill:#ffffff"
     transform="translate(-12.321406,-11.01)">
    <g
       id="g155"
       style="fill:#ffffff">
      <path
         d="m 20.75,16 c 0,-0.22 -0.03,-0.42 -0.06,-0.63 l 0.84,-0.73 c 0.18,-0.16 0.22,-0.42 0.1,-0.63 l -0.59,-1.02 c -0.12,-0.21 -0.37,-0.3 -0.59,-0.22 l -1.06,0.36 C 19.07,12.86 18.71,12.65 18.31,12.5 l -0.22,-1.09 c -0.05,-0.23 -0.25,-0.4 -0.49,-0.4 h -1.18 c -0.24,0 -0.44,0.17 -0.49,0.4 l -0.22,1.09 c -0.4,0.15 -0.76,0.36 -1.08,0.63 l -1.06,-0.36 c -0.23,-0.08 -0.47,0.02 -0.59,0.22 l -0.59,1.02 c -0.12,0.21 -0.08,0.47 0.1,0.63 l 0.84,0.73 c -0.03,0.21 -0.06,0.41 -0.06,0.63 0,0.22 0.03,0.42 0.06,0.63 l -0.84,0.73 c -0.18,0.16 -0.22,0.42 -0.1,0.63 l 0.59,1.02 c 0.12,0.21 0.37,0.3 0.59,0.22 l 1.06,-0.36 c 0.32,0.27 0.68,0.48 1.08,0.63 l 0.22,1.09 c 0.05,0.23 0.25,0.4 0.49,0.4 h 1.18 c 0.24,0 0.44,-0.17 0.49,-0.4 l 0.22,-1.09 c 0.4,-0.15 0.76,-0.36 1.08,-0.63 l 1.06,0.36 c 0.23,0.08 0.47,-0.02 0.59,-0.22 l 0.59,-1.02 c 0.12,-0.21 0.08,-0.47 -0.1,-0.63 L 20.69,16.63 C 20.72,16.42 20.75,16.22 20.75,16 Z M 17,18 c -1.1,0 -2,-0.9 -2,-2 0,-1.1 0.9,-2 2,-2 1.1,0 2,0.9 2,2 0,1.1 -0.9,2 -2,2 z"
         id="path153"
         style="fill:#ffffff" />
    </g>
  </g>
</svg>
