<?xml version="1.0" encoding="UTF-8" standalone="no"?>
<svg
   width="252"
   height="250.593"
   viewBox="0 0 66.675 66.303"
   version="1.1"
   id="svg18"
   sodipodi:docname="logo-o-3d.svg"
   inkscape:version="1.2 (dc2aedaf03, 2022-05-15)"
   xmlns:inkscape="http://www.inkscape.org/namespaces/inkscape"
   xmlns:sodipodi="http://sodipodi.sourceforge.net/DTD/sodipodi-0.dtd"
   xmlns="http://www.w3.org/2000/svg"
   xmlns:svg="http://www.w3.org/2000/svg">
  <defs
     id="defs22" />
  <sodipodi:namedview
     id="namedview20"
     pagecolor="#ffffff"
     bordercolor="#666666"
     borderopacity="1.0"
     inkscape:showpageshadow="2"
     inkscape:pageopacity="0.0"
     inkscape:pagecheckerboard="0"
     inkscape:deskcolor="#d1d1d1"
     showgrid="false"
     inkscape:zoom="2.3420392"
     inkscape:cx="19.214025"
     inkscape:cy="101.83433"
     inkscape:window-width="1920"
     inkscape:window-height="991"
     inkscape:window-x="-9"
     inkscape:window-y="1071"
     inkscape:window-maximized="1"
     inkscape:current-layer="svg18" />
  <path
     style="font-weight:700;font-size:83.9422px;line-height:1.25;font-family:'Josefin Sans';-inkscape-font-specification:'Josefin Sans, Bold';fill:#999999;fill-opacity:1;stroke-width:2.09856;stroke:none;stroke-opacity:1"
     d="M-93.218 39.247a21.542 21.542 0 0 1-2.87-4.85 19.936 19.936 0 0 1-.83-2.62l-9.543 9.694a32.185 32.185 0 0 0 4.602 6.572z"
     id="path2"
     inkscape:export-filename="logo192.png"
     inkscape:export-xdpi="73.14315"
     inkscape:export-ydpi="73.14315"
     transform="translate(110.106 8.15)" />
  <path
     style="font-weight:700;font-size:83.9422px;line-height:1.25;font-family:'Josefin Sans';-inkscape-font-specification:'Josefin Sans, Bold';fill:#b3b3b3;fill-opacity:1;stroke-width:2.09856;stroke:none;stroke-opacity:1"
     d="m-93.218 39.247-8.641 8.796c.294.325.594.646.903.96 2.91 2.854 6.267 5.093 10.072 6.716 3.806 1.623 7.89 2.434 12.256 2.434 4.309 0 8.366-.811 12.172-2.434 3.805-1.623 7.163-3.862 10.073-6.716A31.043 31.043 0 0 0-49.5 38.93c.406-.92.762-1.858 1.07-2.812L-66.575 48.39l-4.051-3.63c-.094.043-.184.09-.279.131-2.238 1.007-4.673 1.511-7.303 1.511-2.743 0-5.288-.504-7.639-1.511a19.926 19.926 0 0 1-6.128-4.197 21.663 21.663 0 0 1-1.243-1.446z"
     transform="translate(110.106 8.15)"
     id="path4" />
  <path
     style="font-weight:700;font-size:83.9422px;line-height:1.25;font-family:'Josefin Sans';-inkscape-font-specification:'Josefin Sans, Bold';fill:#666666;fill-opacity:1;stroke-width:2.09856;stroke:none;stroke-opacity:1"
     d="m-98.45 17.4-11.47 12.833a30.21 30.21 0 0 0 2.248 8.697c.371.87.775 1.717 1.211 2.541l9.543-9.693a21.508 21.508 0 0 1-.597-5.103c0-1.897.22-3.702.656-5.419l-.726-1.764z"
     id="path6"
     transform="translate(110.106 8.15)" />
  <path
     style="font-weight:700;font-size:83.9422px;line-height:1.25;font-family:'Josefin Sans';-inkscape-font-specification:'Josefin Sans, Bold';fill:#b3b3b3;fill-opacity:1;stroke-width:2.09856;stroke:none;stroke-opacity:1"
     d="M-88.975-3.214c-.644.231-1.28.483-1.909.76a32.183 32.183 0 0 0-10.072 6.968c-2.854 2.91-5.093 6.268-6.716 10.073-1.623 3.805-2.434 7.835-2.434 12.088 0 1.207.062 2.393.186 3.558l12.028-12.406z"
     transform="translate(110.106 8.15)"
     id="path8" />
  <path
     style="font-weight:700;font-size:83.9422px;line-height:1.25;font-family:'Josefin Sans';-inkscape-font-specification:'Josefin Sans, Bold';fill:#b3b3b3;fill-opacity:1;stroke-width:2.09856;stroke:none;stroke-opacity:1"
     d="M-88.975-3.214-98.53 19.76l1.67 1.496c.208-.816.464-1.613.771-2.388.951-2.407 2.294-4.505 4.03-6.296a18.321 18.321 0 0 1 6.043-4.28c2.295-1.008 4.785-1.512 7.471-1.512s5.177.504 7.471 1.511a17.438 17.438 0 0 1 5.96 4.281c1.735 1.79 3.078 3.89 4.03 6.296 1.006 2.406 1.51 5.008 1.51 7.807 0 2.742-.476 5.316-1.427 7.722a20.982 20.982 0 0 1-3.945 6.296 17.952 17.952 0 0 1-5.681 4.066l4.05 3.63 18.146-12.27c.965-2.988 1.448-6.136 1.448-9.444 0-4.254-.84-8.283-2.518-12.088a31.043 31.043 0 0 0-6.883-10.073 32.184 32.184 0 0 0-10.073-6.967c-3.806-1.68-7.863-2.519-12.172-2.519-3.645 0-7.093.588-10.347 1.758z"
     transform="translate(110.106 8.15)"
     id="path10" />
  <path
     style="font-weight:700;font-size:83.9422px;line-height:1.25;font-family:'Josefin Sans';-inkscape-font-specification:'Josefin Sans, Bold';fill:#ffffff;fill-opacity:1;stroke-width:2.09856;stroke:none;stroke-opacity:1"
     d="M-75.077-8.15c-4.365 0-8.45.84-12.256 2.518a32.184 32.184 0 0 0-10.073 6.967c-2.854 2.91-5.092 6.268-6.715 10.073-1.623 3.806-2.435 7.835-2.435 12.088 0 4.365.812 8.45 2.435 12.256 1.623 3.805 3.861 7.163 6.715 10.073 2.91 2.854 6.268 5.092 10.073 6.715 3.805 1.623 7.89 2.434 12.256 2.434 4.309 0 8.366-.81 12.171-2.434 3.806-1.623 7.163-3.861 10.073-6.715a31.043 31.043 0 0 0 6.883-10.073c1.68-3.806 2.519-7.89 2.519-12.256 0-4.253-.84-8.282-2.519-12.088a31.043 31.043 0 0 0-6.883-10.073 32.184 32.184 0 0 0-10.073-6.967C-66.71-7.31-70.768-8.15-75.077-8.15zm.084 11.752c2.686 0 5.176.503 7.47 1.51a17.44 17.44 0 0 1 5.96 4.282c1.735 1.79 3.078 3.889 4.03 6.295 1.007 2.407 1.51 5.01 1.51 7.807 0 2.742-.475 5.316-1.427 7.723a20.982 20.982 0 0 1-3.945 6.295 17.99 17.99 0 0 1-5.96 4.198c-2.238 1.007-4.673 1.51-7.303 1.51-2.742 0-5.288-.503-7.639-1.51a19.926 19.926 0 0 1-6.127-4.198 21.478 21.478 0 0 1-4.113-6.295c-.952-2.407-1.427-4.98-1.427-7.723 0-2.798.475-5.4 1.427-7.807.951-2.406 2.294-4.504 4.029-6.295a18.323 18.323 0 0 1 6.044-4.281c2.294-1.008 4.785-1.511 7.47-1.511z"
     transform="translate(110.106 8.15)"
     id="path12" />
  <path
     style="font-weight:700;font-size:83.9422px;line-height:1.25;font-family:'Josefin Sans';-inkscape-font-specification:'Josefin Sans, Bold';fill:#999999;fill-opacity:1;stroke-width:2.09856;stroke:none;stroke-opacity:1"
     d="M-106.411 26.61a30.28 30.28 0 0 0 2.29 9.142 33.485 33.485 0 0 0 1.624 3.281c15.526 6.4 31.561 9.05 46.396 9.593a32.385 32.385 0 0 0 3.268-2.801 31.076 31.076 0 0 0 5.513-7.255c-4.75.077-9.668-.044-14.685-.436a18.033 18.033 0 0 1-5.35 3.577c-2.238 1.008-4.673 1.511-7.303 1.511-2.742 0-5.288-.503-7.639-1.51a19.926 19.926 0 0 1-6.127-4.198 21.408 21.408 0 0 1-3.644-5.279 102.775 102.775 0 0 1-12.708-5.183 5 5 0 0 0-1.635-.442z"
     id="path14"
     transform="translate(110.106 8.15)" />
  <path
     style="font-weight:700;font-size:83.9422px;line-height:1.25;font-family:'Josefin Sans';-inkscape-font-specification:'Josefin Sans, Bold';fill:#cccccc;fill-opacity:1;stroke-width:2.09856;stroke:none;stroke-opacity:1"
     d="M-103.06 37.989a32.206 32.206 0 0 0 4.592 6.7c12.755 3.695 26.076 5.55 39.126 6.067a32.188 32.188 0 0 0 6.497-4.92c-16.761-.11-34.186-2.361-50.215-7.847Z"
     id="path16"
     transform="translate(110.106 8.15)" />
</svg>
